<?xml version="1.0" encoding="utf-8"?>
<!-- Generator: $$$/GeneralStr/196=Adobe Illustrator 27.6.0, SVG Export Plug-In . SVG Version: 6.00 Build 0)  -->
<svg version="1.1" id="Ebene_1" xmlns="http://www.w3.org/2000/svg" xmlns:xlink="http://www.w3.org/1999/xlink" x="0px" y="0px"
	 viewBox="0 0 801.8 353.1" style="enable-background:new 0 0 801.8 353.1;" xml:space="preserve">
<style type="text/css">
	.st0{fill:#FFFFFF;}
	.st1{fill:#A61928;}
</style>
<g>
	<path class="st0" d="M141.4,169.3L95.6,276.8h-0.7L4,57.9h66.9l45.5,107.8l12.2-29.6L96.9,57.9h63.3L206,165l45.5-107.2h29.3
		l-91.6,219h-0.7L141.4,169.3z"/>
</g>
<polygon class="st1" points="160.1,40.8 250.2,40.8 206.6,145.9 "/>
<g>
	<path class="st0" d="M260.5,137.3h31.1v110.6h-31.1V137.3z"/>
	<path class="st0" d="M396,171.1c-4.8-8.1-9.3-14-13.5-17.8s-10-5.7-17.3-5.7c-5.5,0-10.2,1.3-14,3.9c-3.9,2.6-6.9,6.1-9.1,10.4
		c-2.2,4.3-3.7,9-4.6,14.2c-0.9,5.1-1.4,10.4-1.4,15.9s0.5,10.7,1.4,15.8s2.5,9.8,4.7,14.1s5.2,7.8,9.1,10.3
		c3.8,2.6,8.5,3.8,13.9,3.8c2.4,0,4.9-0.2,7.5-0.5s5.1-0.9,7.4-1.5c2.3-0.7,4.2-1.6,5.7-2.9c1.5-1.3,2.2-2.7,2.2-4.3V199h30.1v33.5
		c-7.5,5.8-16.1,10.4-25.6,13.7s-19.8,4.9-30.9,4.9c-8.6,0-16.5-1.4-23.8-4.3c-7.3-2.8-13.6-6.9-19-12.1
		c-5.4-5.2-9.5-11.4-12.4-18.6c-2.9-7.2-4.4-15-4.4-23.4s1.5-16.2,4.4-23.4s7-13.4,12.4-18.6c5.4-5.2,11.7-9.3,19-12.1
		s15.2-4.3,23.8-4.3c12,0,21.5,1.9,28.5,5.7s13.8,10.3,20.3,19.5L396,171.1z"/>
	<path class="st0" d="M514.3,171.1c-4.8-8.1-9.3-14-13.5-17.8s-10-5.7-17.3-5.7c-5.5,0-10.2,1.3-14,3.9c-3.9,2.6-6.9,6.1-9.1,10.4
		c-2.2,4.3-3.7,9-4.6,14.2c-0.9,5.1-1.4,10.4-1.4,15.9s0.5,10.7,1.4,15.8s2.5,9.8,4.7,14.1s5.2,7.8,9.1,10.3
		c3.8,2.6,8.5,3.8,13.9,3.8c2.4,0,4.9-0.2,7.5-0.5s5.1-0.9,7.4-1.5c2.3-0.7,4.2-1.6,5.7-2.9c1.5-1.3,2.2-2.7,2.2-4.3V199h30.1v33.5
		c-7.5,5.8-16.1,10.4-25.6,13.7c-9.5,3.3-19.8,4.9-30.9,4.9c-8.6,0-16.5-1.4-23.8-4.3c-7.3-2.8-13.6-6.9-19-12.1
		c-5.4-5.2-9.5-11.4-12.4-18.6c-2.9-7.2-4.4-15-4.4-23.4s1.5-16.2,4.4-23.4s7-13.4,12.4-18.6c5.4-5.2,11.7-9.3,19-12.1
		s15.2-4.3,23.8-4.3c12,0,21.5,1.9,28.5,5.7s13.8,10.3,20.3,19.5L514.3,171.1z"/>
	<path class="st0" d="M546.7,247.9V137.3h70.5v15h-39.4v31.2h37.3v15h-37.3v34.3h41.4v15L546.7,247.9L546.7,247.9z"/>
	<path class="st0" d="M626.9,247.9V137.3h55.8c4.7,0,9.4,0.8,14,2.3c4.7,1.5,8.9,3.8,12.7,6.7s6.9,6.4,9.2,10.5s3.4,8.6,3.4,13.7
		c0,7.6-2.4,14.1-7.3,19.5c-4.8,5.3-11.2,8.9-18.9,10.8l26.9,47.3h-35.2L660,191.6h3.4c4.1,0,7.7-0.3,10.8-0.8s5.8-1.5,8.1-2.9
		s4.2-3.5,5.6-6.3c1.4-2.8,2.1-6.3,2.1-10.7c0-6.1-1.9-11.1-5.7-14.8s-8.6-5.5-14.5-5.5h-11.6v97.3L626.9,247.9L626.9,247.9z"/>
	<path class="st0" d="M737.1,219.2c2.4,4.8,5.2,8.8,8.6,11.9c3.3,3.2,7.2,4.8,11.6,4.8s8-1.2,10.5-3.6c2.6-2.4,3.9-5.7,3.9-9.9
		c0-3.8-1.5-6.8-4.5-9c-3-2.3-7.8-4.9-14.3-7.9c-4.7-2.2-8.5-4.1-11.6-5.7c-3-1.6-5.9-3.7-8.6-6.2c-2.7-2.5-5-5.6-6.7-9.2
		c-1.7-3.6-2.6-7.9-2.6-12.6c0-11.3,3.5-20.3,10.6-27.2s16.3-10.3,27.7-10.3c8.8,0,16.1,1.7,21.9,5.2c5.8,3.5,11,9,15.6,16.5
		l-12.5,9.7c-3.1-5.5-6.1-9.6-9.2-12.3c-3-2.7-7-4.1-12.1-4.1c-4.3,0-7.6,1.3-9.8,3.8s-3.3,5.9-3.3,10.2c0,3.6,1.5,6.5,4.4,8.7
		c3,2.2,7.8,4.7,14.4,7.5c4.7,2,8.6,3.9,11.7,5.5c3.1,1.7,6.2,3.8,9.1,6.3c2.9,2.6,5.2,5.7,7,9.4s2.7,8.1,2.7,13.2
		c0,11.4-3.8,20.4-11.3,27.1c-7.5,6.7-17.1,10-28.7,10c-9.4,0-17.3-1.7-23.8-5.2s-12-9.1-16.4-17L737.1,219.2z"/>
</g>
</svg>
